#!OML:ASF F:\twosubjects\two\Thursday\Session 1\Rory.ASF
:FULLY-SPECIFIED
:DEGREES
259
root 23.3594 17.2189 -2.56659 -160.988 -68.8635 171.625
lowerback 22.8939 0.171474 -0.859321
upperback 9.56211 -0.975217 -1.11123
thorax -2.31926 -0.875652 -0.449407
lowerneck -4.80493 14.9172 9.87055
upperneck -5.65134 19.4596 -21.8303
head 2.38222 9.56678 -6.99146
rclavicle -3.73218e-014 4.90253e-014
rhumerus -31.9012 -0.995266 -78.1603
rradius 74.3226
rwrist 5.39203
rhand -20.7439 25.1073
rfingers 7.12502
rthumb 5.62158 -4.79815
lclavicle -3.73218e-014 4.90253e-014
lhumerus 0.146997 16.9685 76.61
lradius 105.694
lwrist -27.1821
lhand -18.7238 46.3821
lfingers 7.12502
lthumb 7.57173 76.2265
rfemur -48.9597 -12.166 19.9255
rtibia 69.8224
rfoot -9.13041 11.6246
rtoes -25.7669
lfemur -38.1397 11.448 -27.4864
ltibia 55.2065
lfoot -23.0403 -5.82869
ltoes 19.7118
260
root 23.3635 17.1749 -2.59719 -159.847 -68.4366 170.25
lowerback 22.9257 0.339328 -1.62177
upperback 9.56281 -0.929009 -1.21542
thorax -2.32683 -0.872094 -0.137914
lowerneck -4.62801 14.8818 9.54562
upperneck -5.82025 19.3961 -21.5103
head 2.22219 9.56049 -6.8837
rclavicle -1.21259e-014 -3.69988e-014
rhumerus -32.1684 -1.35613 -78.3543
rradius 74.7771
rwrist 5.64773
rhand -20.6338 25.0794
rfingers 7.12502
rthumb 5.72792 -4.82321
lclavicle -1.21259e-014 -3.69988e-014
lhumerus -0.598806 16.751 75.507
lradius 105.936
lwrist -26.3021
lhand -17.4696 43.064
lfingers 7.12502
lthumb 8.78223 72.8613
rfemur -49.5978 -12.4269 18.5449
rtibia 70.8201
rfoot -7.59709 14.1005
rtoes -28.7063
lfemur -38.2012 11.4496 -28.044
ltibia 55.6029
lfoot -23.3628 -5.07849
ltoes 18.5906
261
root 23.3656 17.1464 -2.62859 -160.112 -68.0536 170.371
lowerback 22.9971 0.526768 -1.8768
upperback 9.56079 -0.749497 -1.21952
thorax -2.363 -0.792409 -0.0397674
lowerneck -4.49395 14.8702 9.52384
upperneck -5.93197 19.3691 -21.3535
head 2.14223 9.56128 -6.85388
rclavicle -1.83006e-014 1.13556e-014
rhumerus -32.3962 -1.51541 -78.3311
rradius 75.024
rwrist 6.00345
rhand -20.8301 25.1624
rfingers 7.12502
rthumb 5.53842 -4.74523
lclavicle -1.83006e-014 1.13556e-014
lhumerus -0.239343 16.3831 75.2233
lradius 105.964
lwrist -25.2437
lhand -17.229 43.6601
lfingers 7.12502
lthumb 9.01436 73.4475
rfemur -50.0476 -12.1855 17.6561
rtibia 71.5177
rfoot -6.45828 16.6376
rtoes -30.9007
lfemur -38.3661 11.6752 -28.0238
ltibia 56.2268
lfoot -24.0971 -5.10056
ltoes 18.7745
262
root 23.3626 17.1092 -2.65103 -161.612 -67.7071 171.884
lowerback 23.0255 0.551906 -1.61723
upperback 9.5514 -0.662723 -1.11349
thorax -2.38919 -0.747122 -0.0943667
lowerneck -4.35158 14.9542 9.39159
upperneck -6.10579 19.4685 -21.3317
head 2.06691 9.62845 -6.83541
rclavicle 8.44835e-015 4.01794e-014
rhumerus -32.4443 -1.39841 -78.2753
rradius 75.263
rwrist 6.51222
rhand -20.8964 25.0913
rfingers 7.12502
rthumb 5.47442 -4.81801
lclavicle 8.44835e-015 4.01794e-014
lhumerus -0.0267598 16.7754 74.907
lradius 106.142
lwrist -24.8501
lhand -18.4748 44.8551
lfingers 7.12502
lthumb 7.81204 74.6908
rfemur -50.3263 -11.5212 17.2887
rtibia 71.9099
rfoot -6.44973 18.5523
rtoes -31.6981
lfemur -38.7217 12.0805 -27.5248
ltibia 56.9794
lfoot -25.0226 -7.44438
ltoes 23.2977
263
root 23.3655 17.0687 -2.67313 -162.314 -67.3517 172.569
lowerback 23.0215 0.540595 -1.65523
upperback 9.56333 -0.692035 -1.12082
thorax -2.37377 -0.765378 -0.0735638
lowerneck -4.38353 15.0795 9.45614
upperneck -6.10259 19.6399 -21.3352
head 2.10477 9.71041 -6.82115
rclavicle -7.73769e-014 -1.00883e-014
rhumerus -32.4369 -1.05802 -78.2892
rradius 75.6343
rwrist 6.41262
rhand -20.8257 24.7457
rfingers 7.12502
rthumb 5.54268 -5.16185
lclavicle -7.73769e-014 -1.00883e-014
lhumerus 0.130788 17.0998 74.5306
lradius 106.222
lwrist -25.3594
lhand -13.3025 39.0495
lfingers 7.12502
lthumb 12.8016 68.637
rfemur -50.5206 -10.5154 16.4598
rtibia 72.1217
rfoot -5.99915 19.2142
rtoes -28.1875
lfemur -39.0626 12.4538 -27.3403
ltibia 57.6486
lfoot -25.2116 -3.99331
ltoes 20.097
264
root 23.3651 17.058 -2.70535 -162.887 -67.2198 173.099
lowerback 22.9706 0.55077 -1.66308
upperback 9.5834 -0.682873 -1.12765
thorax -2.32698 -0.762942 -0.0793199
lowerneck -4.38092 15.1334 9.84452
upperneck -6.07976 19.7127 -21.408
head 2.1701 9.73916 -6.88373
rclavicle 7.7526e-015 -1.36167e-014
rhumerus -32.6218 -1.04787 -78.303
rradius 76.2023
rwrist 5.64111
rhand -19.8776 24.4836
rfingers 7.12502
rthumb 6.45796 -5.39789
lclavicle 7.7526e-015 -1.36167e-014
lhumerus 0.277905 17.0082 74.2805
lradius 106.112
lwrist -26.1656
lhand -11.9155 36.9412
lfingers 7.12502
lthumb 14.1384 66.4401
rfemur -50.6341 -9.63402 15.5512
rtibia 72.1825
rfoot -5.9382 18.3914
rtoes -24.1562
lfemur -39.1504 12.5947 -27.0192
ltibia 58.1455
lfoot -25.5736 -3.15029
ltoes 21.8352
265
root 23.3574 17.054 -2.74472 -164.218 -67.1515 174.313
lowerback 22.9952 0.552664 -1.56027
upperback 9.59046 -0.650938 -0.897995
thorax -2.32975 -0.750751 0.100691
lowerneck -3.99175 15.1345 9.54621
upperneck -6.38729 19.6926 -21.2164
head 1.96005 9.77087 -6.83525
rclavicle -2.75317e-014 1.72943e-014
rhumerus -32.8361 -1.04733 -78.1487
rradius 76.6658
rwrist 5.55636
rhand -19.0224 24.7345
rfingers 7.12502
rthumb 7.2835 -5.12016
lclavicle -2.75317e-014 1.72943e-014
lhumerus 0.304385 18.6016 76.1092
lradius 106.818
lwrist -27.7075
lhand -11.6766 35.0248
lfingers 7.12502
lthumb 14.3686 64.5075
rfemur -50.5463 -9.16117 15.0593
rtibia 72.106
rfoot -7.66145 16.575
rtoes -25.6492
lfemur -38.9794 12.6215 -26.2846
ltibia 58.5455
lfoot -25.9896 -3.50139
ltoes 24.6922
266
root 23.3506 17.0271 -2.78093 -165.058 -67.0157 174.835
lowerback 23.146 0.565881 -1.72125
upperback 9.664 -0.676648 -0.687248
thorax -2.31937 -0.779274 0.425192
lowerneck -3.75818 15.1441 9.05194
upperneck -6.55911 19.696 -21.0126
head 1.79695 9.8022 -6.73774
rclavicle 2.95195e-014 -5.01931e-014
rhumerus -32.9216 -0.796706 -78.0589
rradius 76.6658
rwrist 6.40418
rhand -20.2298 25.5238
rfingers 7.12502
rthumb 6.11794 -4.36789
lclavicle 2.95195e-014 -5.01931e-014
lhumerus 0.651685 18.2863 75.1963
lradius 106.178
lwrist -27.1474
lhand -14.2592 38.6818
lfingers 7.12502
lthumb 11.8792 68.3248
rfemur -50.1292 -8.90399 14.2891
rtibia 71.9089
rfoot -10.1476 14.1288
rtoes -29.3577
lfemur -38.6304 12.5298 -25.8241
ltibia 58.8995
lfoot -26.3187 -3.26828
ltoes 22.7015
267
root 23.3473 16.9872 -2.81041 -165.103 -66.8832 174.531
lowerback 23.3446 0.617194 -1.87762
upperback 9.75279 -0.671524 -0.758447
thorax -2.31973 -0.788149 0.437873
lowerneck -3.77681 15.123 9.08249
upperneck -6.55619 19.6651 -20.9683
head 1.7941 9.78489 -6.7313
rclavicle 1.26228e-014 4.77083e-015
rhumerus -33.0169 -0.994445 -78.2273
rradius 76.6897
rwrist 6.47207
rhand -21.5576 25.7512
rfingers 7.12502
rthumb 4.83595 -4.17359
lclavicle 1.26228e-014 4.77083e-015
lhumerus 1.2706 17.5411 74.502
lradius 105.792
lwrist -26.825
lhand -19.1765 46.946
lfingers 7.12502
lthumb 7.13476 76.8057
rfemur -49.6784 -8.54036 13.0916
rtibia 71.5949
rfoot -12.017 11.2155
rtoes -31.1908
lfemur -38.3434 12.1679 -25.7167
ltibia 59.3013
lfoot -26.8111 -2.37126
ltoes 18.9223
